<svg width="19" height="11" viewBox="0 0 19 11" fill="none" xmlns="http://www.w3.org/2000/svg">
<path fill-rule="evenodd" clip-rule="evenodd" d="M18.2206 0.656836C18.3305 0.768022 18.3921 0.91803 18.3921 1.07434C18.3921 1.23064 18.3305 1.38065 18.2206 1.49184L9.79262 10.3208C9.74234 10.3772 9.68071 10.4223 9.61177 10.4532C9.54284 10.4841 9.46815 10.5001 9.39262 10.5001C9.31708 10.5001 9.24239 10.4841 9.17346 10.4532C9.10453 10.4223 9.0429 10.3772 8.99262 10.3208L0.564619 1.52084C0.455408 1.40938 0.39374 1.25987 0.392618 1.10384C0.393318 0.947713 0.45505 0.798054 0.564619 0.686836C0.614901 0.630465 0.676527 0.585358 0.745462 0.554473C0.814398 0.523588 0.889082 0.507622 0.964619 0.507622C1.04016 0.507622 1.11484 0.523588 1.18377 0.554473C1.25271 0.585358 1.31434 0.630465 1.36462 0.686836L9.39362 9.03784L17.4226 0.654837C17.5318 0.554896 17.6745 0.499631 17.8225 0.500002C17.9705 0.500372 18.113 0.556351 18.2216 0.656836L18.2206 0.656836Z" fill="black"/>
</svg>
