<svg width="41" height="64" viewBox="0 0 41 64" fill="none" xmlns="http://www.w3.org/2000/svg">
<path d="M13.88 58.446C13.88 55.4282 16.3265 52.9817 19.3443 52.9817H20.1312C23.149 52.9817 25.5955 55.4282 25.5955 58.446C25.5955 61.4638 23.149 63.9103 20.1312 63.9103H19.3443C16.3265 63.9103 13.88 61.4638 13.88 58.446ZM4.96231 21.3326C2.21004 21.3326 -0.0840757 19.0833 0.390626 16.3723C0.622082 15.0504 0.95112 13.7896 1.37774 12.5897C2.3686 9.96686 3.76745 7.72286 5.57431 5.85771C7.43945 3.99257 9.65431 2.56457 12.2189 1.57371C14.8417 0.52457 17.756 0 20.9617 0C23.6429 0 26.12 0.408 28.3932 1.224C30.7246 1.98171 32.7355 3.11828 34.4257 4.63371C36.1743 6.09085 37.544 7.92685 38.5349 10.1417C39.5257 12.3566 40.0212 14.8629 40.0212 17.6606C40.0212 19.7006 39.788 21.4783 39.3217 22.9937C38.9137 24.4509 38.3309 25.7331 37.5732 26.8406C36.8737 27.8897 36.0577 28.8514 35.1252 29.7257C34.1926 30.5417 33.26 31.3577 32.3275 32.1737C31.22 33.1063 30.2 34.0097 29.2675 34.884C28.3349 35.7583 27.5189 36.7491 26.8195 37.8566C26.12 38.9057 25.5663 40.1589 25.1583 41.616C25.1091 41.8212 25.0633 42.0328 25.021 42.2508C24.524 44.8104 22.52 46.9491 19.9126 46.9491C17.3052 46.9491 15.1489 44.8312 15.3572 42.2321C15.4072 41.6083 15.4685 41.0241 15.5412 40.4794C15.8326 38.6726 16.2697 37.0989 16.8526 35.7583C17.4355 34.4177 18.1349 33.252 18.9509 32.2611C19.8252 31.212 20.8452 30.192 22.0109 29.2011C22.9435 28.3851 23.8177 27.6274 24.6337 26.928C25.508 26.2286 26.2657 25.4709 26.9069 24.6549C27.6063 23.7806 28.1309 22.8189 28.4806 21.7697C28.8886 20.7206 29.0926 19.4674 29.0926 18.0103C29.0926 16.2617 28.772 14.7754 28.1309 13.5514C27.548 12.2691 26.8195 11.2491 25.9452 10.4914C25.0709 9.73371 24.1383 9.18 23.1475 8.83028C22.1566 8.48057 21.2823 8.30571 20.5246 8.30571C16.9109 8.30571 14.2297 9.50057 12.4812 11.8903C11.567 13.1512 10.9 14.6508 10.4803 16.3891C9.83425 19.0645 7.71458 21.3326 4.96231 21.3326Z" fill="#EFC880"/>
</svg>
