<svg width="78" height="58" viewBox="0 0 78 58" fill="none" xmlns="http://www.w3.org/2000/svg">
<mask id="mask0_242_675" style="mask-type:alpha" maskUnits="userSpaceOnUse" x="0" y="14" width="70" height="44">
<path d="M0.290039 14.1104H69.869V57.9441H0.290039V14.1104Z" fill="white"/>
</mask>
<g mask="url(#mask0_242_675)">
<path fill-rule="evenodd" clip-rule="evenodd" d="M0.349088 42.678C2.62246 46.0989 5.42137 49.3741 8.70447 51.924C10.348 53.2044 12.1313 54.3057 14.0494 55.093C15.9704 55.8439 18.0371 56.3045 20.0782 56.6814C24.1811 57.4047 28.4061 57.4589 32.4942 56.6981C36.5902 55.9748 40.5061 54.4513 44.1642 52.482C47.8134 50.4714 51.2303 48.0406 54.2162 45.1374C57.2257 42.2588 59.7944 38.9422 62.1347 35.4829C64.407 31.9823 66.7237 28.4365 68.3171 24.615C68.6832 23.6545 69.0286 22.6713 69.1368 21.6823C69.1851 21.1902 69.1792 20.7001 69.0581 20.2533C68.9351 19.7966 68.6723 19.4709 68.3003 19.0507C67.7335 18.2978 66.7582 17.7821 65.902 17.2152C65.0162 16.6681 64.1098 16.1425 63.1975 15.6367L63.1936 15.6357L63.1513 15.6091C62.1504 14.9497 60.7756 14.7057 59.4981 14.7411C58.8604 14.7687 58.1676 14.8169 57.5958 15.0068C56.994 15.2229 56.4302 15.5332 55.9257 15.926C53.8531 17.5252 52.2371 19.7396 50.8278 21.9736L50.8377 21.9539L43.6042 36.6039C40.7541 41.3199 36.4987 45.1462 31.4736 47.3547C28.9528 48.4444 26.2626 49.0903 23.5218 49.2639C20.7916 49.3941 18.0554 49.2215 15.3632 48.7492C10.0183 47.7818 4.74526 45.7554 0.349088 42.68V42.678ZM0.290039 42.6121C4.86577 45.6031 10.0084 47.6199 15.3976 48.5366C18.0745 48.9844 20.7976 49.135 23.506 48.9824C26.2085 48.7919 28.8575 48.1349 31.3359 47.0407C36.2664 44.8402 40.449 40.9863 43.1948 36.3903L50.3377 21.7088L50.3485 21.6892C51.7854 19.3882 53.3777 17.1542 55.5645 15.4408C56.1193 15.0039 56.7407 14.659 57.4049 14.4193C58.1144 14.187 58.7807 14.1516 59.4814 14.1132C60.8681 14.0837 62.2852 14.2736 63.5518 15.0924L63.5075 15.0639C64.4356 15.5687 65.3515 16.0957 66.2543 16.6444C67.1331 17.229 68.1005 17.6945 68.8337 18.6127C69.1595 18.968 69.5836 19.4837 69.7293 20.0565C69.8877 20.6273 69.8897 21.202 69.8405 21.7531C69.7224 22.8583 69.3681 23.8808 68.9971 24.8798C67.3762 28.837 65.0851 32.3858 62.8196 35.9386C60.4872 39.45 57.9019 42.8404 54.8274 45.7692C51.7854 48.7285 48.2976 51.2115 44.5893 53.2566C37.1905 57.4234 28.287 58.9538 19.97 57.2719C17.8924 56.8566 15.8425 56.3724 13.8545 55.5664C11.8941 54.7298 10.0892 53.5784 8.44171 52.2537C5.17344 49.5498 2.41308 46.2853 0.290039 42.6131" fill="#231F20"/>
</g>
<mask id="mask1_242_675" style="mask-type:alpha" maskUnits="userSpaceOnUse" x="62" y="0" width="16" height="16">
<path d="M62.8242 0.5H77.238V15.2917H62.8242V0.5Z" fill="white"/>
</mask>
<g mask="url(#mask1_242_675)">
<path fill-rule="evenodd" clip-rule="evenodd" d="M62.8338 15.2196C64.1004 13.581 65.367 11.969 66.4535 10.2468C67.5794 8.5747 68.4562 6.73042 69.5014 4.91664C70.0151 4.0132 70.5348 3.11172 71.1567 2.25748C71.4677 1.83233 71.7964 1.41309 72.2176 1.04994C72.6251 0.65628 73.2648 0.461419 73.8011 0.503737C74.9231 0.533262 75.9446 1.21232 76.4879 2.12758C77.0301 3.05464 77.2181 4.11752 77.2378 5.1489C77.2382 5.15475 77.2374 5.16061 77.2354 5.16615C77.2335 5.17168 77.2305 5.17676 77.2265 5.18109C77.2226 5.18541 77.2178 5.18889 77.2124 5.19131C77.2071 5.19373 77.2013 5.19503 77.1955 5.19515C77.1842 5.19518 77.1734 5.19092 77.1651 5.18324C77.1569 5.17557 77.1519 5.16505 77.1512 5.15382C77.0724 4.13326 76.8215 3.10778 76.2654 2.27323C75.7094 1.44852 74.7617 0.91511 73.7972 0.946602C72.7894 0.873776 72.2049 1.76738 71.6272 2.58717C71.0692 3.42861 70.5938 4.33895 70.1254 5.25125C69.1934 7.05519 68.4651 9.05005 67.1847 10.7487C65.9309 12.4257 64.5344 13.9905 62.8958 15.2836C62.8911 15.2871 62.8858 15.2895 62.8801 15.2909C62.8744 15.2923 62.8685 15.2925 62.8628 15.2916C62.857 15.2907 62.8515 15.2886 62.8465 15.2856C62.8416 15.2825 62.8372 15.2785 62.8338 15.2738C62.8201 15.258 62.822 15.2354 62.8338 15.2196Z" fill="#231F20"/>
</g>
<path fill-rule="evenodd" clip-rule="evenodd" d="M67.8239 18.197C67.8397 16.647 68.068 15.1304 68.2953 13.6138C68.5463 12.1012 68.9685 10.622 69.37 9.14287C69.7619 7.65887 70.2034 6.18839 70.6937 4.7339C70.9496 4.00957 71.2251 3.28819 71.5509 2.58847C71.9071 1.93303 72.1837 1.10536 72.9641 0.781578C72.9877 0.774689 73.0123 0.783547 73.0212 0.806182C73.0281 0.825865 73.0212 0.850468 72.9995 0.859326L72.9798 0.870151C72.3303 1.19295 72.0803 2.02652 71.7949 2.69279C71.5292 3.40137 71.3127 4.13161 71.1159 4.86676C70.7144 6.33477 70.3618 7.81575 70.0589 9.30722C69.7509 10.8012 69.5265 12.3098 69.1633 13.791C68.7785 15.2682 68.4282 16.7533 67.9105 18.2108C67.9087 18.2165 67.9058 18.2217 67.902 18.2263C67.8981 18.2308 67.8934 18.2345 67.8881 18.2372C67.8827 18.2399 67.8769 18.2414 67.871 18.2418C67.865 18.2421 67.8591 18.2413 67.8534 18.2393C67.8357 18.2344 67.8239 18.2147 67.8239 18.197ZM49.1724 33.3036C50.2373 30.2941 51.5127 27.3564 53.0558 24.5388C53.8382 23.1374 54.6443 21.7242 55.7376 20.5009C56.8428 19.3603 58.2108 18.1222 59.9094 18.0582C59.934 18.0563 59.9537 18.0759 59.9557 18.1006C59.9557 18.1202 59.939 18.138 59.9212 18.1448C58.4283 18.6979 57.3821 19.874 56.4108 21.0756C55.4631 22.3058 54.5212 23.5645 53.668 24.898C52.0146 27.5926 50.5522 30.4289 49.2541 33.3351C49.2521 33.3406 49.2491 33.3457 49.2451 33.35C49.2411 33.3543 49.2364 33.3577 49.231 33.3601C49.2257 33.3625 49.2199 33.3638 49.2141 33.3639C49.2082 33.364 49.2024 33.3629 49.197 33.3607C49.1866 33.3559 49.1782 33.3475 49.1737 33.3369C49.1692 33.3264 49.1687 33.3145 49.1724 33.3036Z" fill="#231F20"/>
</svg>
