<svg width="58" height="58" viewBox="0 0 58 58" fill="none" xmlns="http://www.w3.org/2000/svg">
<path fill-rule="evenodd" clip-rule="evenodd" d="M33.8129 40.9452L21.1035 23.4678L34.5677 40.3748C34.7226 40.5669 34.6814 40.8547 34.4752 41.0169C34.2699 41.1783 33.9787 41.1527 33.8247 40.9614C33.8203 40.9564 33.8163 40.951 33.8129 40.9452Z" fill="#010202"/>
<path d="M33.8973 40.2537C34.6008 41.152 35.2487 49.0402 35.2487 49.0402C35.2487 49.0402 39.8602 43.8247 40.9004 36.5111C41.9388 29.1976 40.5217 28.2198 39.2914 24.5054C38.0611 20.791 32.8706 16.0024 30.2148 14.6874C28.2995 13.7396 22.1666 11.5844 18.8443 10.4393C17.6476 10.0294 16.2987 10.7057 15.8737 11.9216C13.9012 17.5727 13.5267 23.6174 15.1534 29.1822C16.1186 32.4816 17.7781 35.5983 20.6165 37.1251C20.6165 37.1251 27.2274 40.4211 31.6294 39.5877C36.0297 38.7543 35.2201 47.1532 35.2201 47.1532" stroke="#010202" stroke-width="0.5" stroke-linecap="round" stroke-linejoin="round"/>
<path fill-rule="evenodd" clip-rule="evenodd" d="M28.9258 56.2987L25.5479 56.8896L22.4074 55.4961L18.9892 55.2493L16.2685 53.1334L13.0068 52.0634L10.8652 49.3481L7.95101 47.5182L6.51117 44.3622L4.11286 41.8774L3.45984 38.4618L1.71791 35.4672L1.88873 31.9936L0.90332 28.6626L1.88789 25.3316L1.71791 21.8579L3.45984 18.8625L4.11286 15.4486L6.51117 12.9638L7.95016 9.80699L10.8652 7.97625L13.0068 5.26088L16.2685 4.19181L18.9892 2.07587L22.4074 1.8291L25.5479 0.435547L28.9258 1.02644L32.3036 0.435547L35.4441 1.8291L38.8624 2.07587L41.583 4.19181L44.8447 5.26173L46.9863 7.9771L49.9005 9.80699L51.3403 12.963L53.7387 15.4478L54.3917 18.8633L56.1336 21.8579L55.9628 25.3316L56.9482 28.6626L55.9636 31.9936L56.1336 35.4672L54.3917 38.4627L53.7387 41.8765L51.3403 44.3614L49.9014 47.5182L46.9863 49.3489L44.8447 52.0643L41.583 53.1334L38.8624 55.2493L35.4441 55.4961L32.3036 56.8896L28.9258 56.2987Z" stroke="black" stroke-width="0.5"/>
</svg>
