<svg width="57" height="57" viewBox="0 0 57 57" fill="none" xmlns="http://www.w3.org/2000/svg">
<path fill-rule="evenodd" clip-rule="evenodd" d="M36.5052 45.3892L47.4918 18.5234L37.6236 45.8204C37.5969 45.8944 37.5558 45.9624 37.5028 46.0206C37.4498 46.0787 37.3858 46.1258 37.3146 46.1592C37.2433 46.1926 37.1662 46.2117 37.0876 46.2153C37.009 46.2189 36.9304 46.207 36.8564 46.1802C36.7824 46.1535 36.7144 46.1124 36.6563 46.0594C36.5982 46.0063 36.551 45.9424 36.5176 45.8711C36.4842 45.7999 36.4652 45.7228 36.4616 45.6442C36.458 45.5656 36.4699 45.487 36.4966 45.413L36.5052 45.3892Z" fill="#010202"/>
<path d="M22.3941 46.4587C22.3941 46.4587 12.802 44.0856 9.38384 40.1925C5.96755 36.2974 0.45713 30.7908 0.932117 7.52403C0.932117 7.52403 4.54164 3.82123 23.7239 14.1719M37.2938 44.9709C36.7227 46.3958 38.537 56.7142 38.537 56.7142C38.537 56.7142 31.1304 51.872 27.4276 42.9453C23.7229 34.0186 25.1488 32.2148 25.4334 26.9918C25.7171 21.7679 30.526 13.6179 33.3626 10.8956C35.4063 8.93281 42.2484 3.77553 45.9626 1.00843C46.2788 0.77328 46.6397 0.60505 47.0231 0.514006C47.4065 0.422962 47.8045 0.411014 48.1927 0.478892C48.5809 0.54677 48.9512 0.693049 49.281 0.9088C49.6108 1.12455 49.8932 1.40525 50.1109 1.73376C54.4152 8.16845 56.8768 15.7387 56.7159 23.4794C56.6207 28.0703 55.607 32.6993 52.6171 35.7615C52.6171 35.7615 45.5656 42.5655 39.8668 43.2299C34.1698 43.8943 37.9497 54.2945 37.9497 54.2945L37.2938 44.9709Z" stroke="#010202" stroke-width="0.5" stroke-linecap="round" stroke-linejoin="round"/>
<path fill-rule="evenodd" clip-rule="evenodd" d="M12.3455 17.8468C13.7552 19.2438 15.1018 20.7029 16.3815 22.2197C17.0231 22.9784 17.7037 23.7171 18.2101 24.5899C18.6746 25.4657 19.2229 26.3947 19.2076 27.4608C19.2075 27.4703 19.2042 27.4796 19.1982 27.487C19.1922 27.4945 19.1839 27.4997 19.1746 27.5019C19.1653 27.5041 19.1555 27.5031 19.1469 27.4991C19.1382 27.4951 19.1311 27.4883 19.1267 27.4798L19.1239 27.4722C18.6746 26.5955 18.0816 25.8445 17.4962 25.064C16.9165 24.2834 16.4025 23.4477 15.8408 22.6395C14.6865 21.0369 13.4999 19.4577 12.2818 17.903C12.2782 17.8986 12.2756 17.8935 12.2741 17.8881C12.2725 17.8827 12.2721 17.877 12.2728 17.8714C12.2735 17.8658 12.2753 17.8604 12.2782 17.8555C12.281 17.8506 12.2849 17.8464 12.2894 17.843C12.2976 17.8366 12.3078 17.8334 12.3182 17.8341C12.3286 17.8348 12.3383 17.8393 12.3455 17.8468Z" fill="#010202"/>
</svg>
